<svg width="435" height="126" viewBox="0 0 435 126" fill="none" xmlns="http://www.w3.org/2000/svg">
<path d="M10.698 101.091V90.1818H13.2207V91.017H11.6525V100.256H13.2207V101.091H10.698ZM14.5343 100V99.233L17.415 96.0795C17.753 95.7102 18.0314 95.3892 18.2502 95.1165C18.4689 94.8409 18.6309 94.5824 18.736 94.3409C18.8439 94.0966 18.8979 93.8409 18.8979 93.5739C18.8979 93.267 18.824 93.0014 18.6763 92.777C18.5314 92.5526 18.3326 92.3793 18.0797 92.2571C17.8269 92.1349 17.5428 92.0739 17.2275 92.0739C16.8922 92.0739 16.5996 92.1435 16.3496 92.2827C16.1025 92.419 15.9107 92.6108 15.7743 92.858C15.6408 93.1051 15.574 93.3949 15.574 93.7273H14.5684C14.5684 93.2159 14.6863 92.767 14.9221 92.3807C15.1578 91.9943 15.4789 91.6932 15.8851 91.4773C16.2942 91.2614 16.753 91.1534 17.2615 91.1534C17.7729 91.1534 18.226 91.2614 18.6209 91.4773C19.0158 91.6932 19.3255 91.9844 19.5499 92.3509C19.7743 92.7173 19.8865 93.125 19.8865 93.5739C19.8865 93.8949 19.8283 94.2088 19.7118 94.5156C19.5982 94.8196 19.3993 95.1591 19.1152 95.5341C18.834 95.9062 18.4434 96.3608 17.9434 96.8977L15.9831 98.9943V99.0625H20.04V100H14.5343ZM23.3169 98.8068L23.2488 99.267C23.2005 99.5909 23.1266 99.9375 23.0272 100.307C22.9306 100.676 22.8297 101.024 22.7246 101.351C22.6195 101.678 22.5328 101.938 22.4647 102.131H21.6976C21.7346 101.949 21.7828 101.709 21.8425 101.411C21.9022 101.112 21.9618 100.778 22.0215 100.409C22.084 100.043 22.1351 99.6676 22.1749 99.2841L22.226 98.8068H23.3169ZM31.487 100.119C30.9245 100.119 30.4231 100.023 29.9828 99.8295C29.5453 99.6364 29.1973 99.3679 28.9387 99.0241C28.6831 98.6776 28.5439 98.2756 28.5211 97.8182H29.595C29.6177 98.0994 29.7143 98.3423 29.8848 98.5469C30.0552 98.7486 30.2782 98.9048 30.5538 99.0156C30.8294 99.1264 31.1348 99.1818 31.47 99.1818C31.845 99.1818 32.1774 99.1165 32.4672 98.9858C32.7569 98.8551 32.9842 98.6733 33.149 98.4403C33.3137 98.2074 33.3961 97.9375 33.3961 97.6307C33.3961 97.3097 33.3166 97.027 33.1575 96.7827C32.9984 96.5355 32.7654 96.3423 32.4586 96.2031C32.1518 96.0639 31.7768 95.9943 31.3336 95.9943H30.6348V95.0568H31.3336C31.6802 95.0568 31.9842 94.9943 32.2456 94.8693C32.5098 94.7443 32.7157 94.5682 32.8635 94.3409C33.014 94.1136 33.0893 93.8466 33.0893 93.5398C33.0893 93.2443 33.024 92.9872 32.8933 92.7685C32.7626 92.5497 32.5779 92.3793 32.3393 92.2571C32.1035 92.1349 31.8251 92.0739 31.5041 92.0739C31.2029 92.0739 30.9189 92.1293 30.6518 92.2401C30.3876 92.348 30.1717 92.5057 30.0041 92.7131C29.8365 92.9176 29.7456 93.1648 29.7314 93.4545H28.7086C28.7257 92.9972 28.8635 92.5966 29.122 92.2528C29.3805 91.9062 29.7186 91.6364 30.1362 91.4432C30.5566 91.25 31.0183 91.1534 31.5211 91.1534C32.0609 91.1534 32.524 91.2628 32.9103 91.4815C33.2967 91.6974 33.5936 91.983 33.801 92.3381C34.0083 92.6932 34.112 93.0767 34.112 93.4886C34.112 93.9801 33.9828 94.3991 33.7243 94.7457C33.4686 95.0923 33.1206 95.3324 32.6802 95.4659V95.5341C33.2314 95.625 33.6618 95.8594 33.9714 96.2372C34.2811 96.6122 34.4359 97.0767 34.4359 97.6307C34.4359 98.1051 34.3066 98.5312 34.0481 98.9091C33.7924 99.2841 33.443 99.5795 32.9998 99.7955C32.5566 100.011 32.0524 100.119 31.487 100.119ZM37.4263 98.8068L37.3581 99.267C37.3098 99.5909 37.236 99.9375 37.1365 100.307C37.04 100.676 36.9391 101.024 36.834 101.351C36.7289 101.678 36.6422 101.938 36.574 102.131H35.807C35.8439 101.949 35.8922 101.709 35.9519 101.411C36.0115 101.112 36.0712 100.778 36.1309 100.409C36.1934 100.043 36.2445 99.6676 36.2843 99.2841L36.3354 98.8068H37.4263ZM45.3748 100.119C44.8748 100.119 44.4245 100.02 44.024 99.821C43.6234 99.6222 43.3024 99.3494 43.0609 99.0028C42.8194 98.6562 42.6873 98.2614 42.6646 97.8182H43.6873C43.7271 98.2131 43.9061 98.5398 44.2243 98.7983C44.5453 99.054 44.9288 99.1818 45.3748 99.1818C45.7328 99.1818 46.051 99.098 46.3294 98.9304C46.6106 98.7628 46.8308 98.5327 46.9899 98.2401C47.1518 97.9446 47.2328 97.6108 47.2328 97.2386C47.2328 96.858 47.149 96.5185 46.9814 96.2202C46.8166 95.919 46.5893 95.6818 46.2995 95.5085C46.0098 95.3352 45.6788 95.2472 45.3066 95.2443C45.0396 95.2415 44.7654 95.2827 44.4842 95.3679C44.2029 95.4503 43.9714 95.5568 43.7896 95.6875L42.801 95.5682L43.3294 91.2727H47.8635V92.2102H44.2157L43.9089 94.7841H43.96C44.139 94.642 44.3635 94.5241 44.6333 94.4304C44.9032 94.3366 45.1845 94.2898 45.4771 94.2898C46.0112 94.2898 46.487 94.4176 46.9047 94.6733C47.3251 94.9261 47.6547 95.2727 47.8933 95.7131C48.1348 96.1534 48.2555 96.6562 48.2555 97.2216C48.2555 97.7784 48.1305 98.2756 47.8805 98.7131C47.6333 99.1477 47.2924 99.4915 46.8578 99.7443C46.4231 99.9943 45.9288 100.119 45.3748 100.119ZM51.1373 98.8068L51.0691 99.267C51.0208 99.5909 50.9469 99.9375 50.8475 100.307C50.7509 100.676 50.65 101.024 50.5449 101.351C50.4398 101.678 50.3532 101.938 50.285 102.131H49.5179C49.5549 101.949 49.6032 101.709 49.6628 101.411C49.7225 101.112 49.7821 100.778 49.8418 100.409C49.9043 100.043 49.9554 99.6676 49.9952 99.2841L50.0463 98.8068H51.1373ZM59.2562 100.119C58.8983 100.114 58.5403 100.045 58.1824 99.9148C57.8244 99.7841 57.4977 99.5639 57.2022 99.2543C56.9068 98.9418 56.6696 98.5199 56.4906 97.9886C56.3116 97.4545 56.2221 96.7841 56.2221 95.9773C56.2221 95.2045 56.2946 94.5199 56.4395 93.9233C56.5843 93.3239 56.7946 92.8196 57.0701 92.4105C57.3457 91.9986 57.6781 91.6861 58.0673 91.473C58.4593 91.2599 58.9011 91.1534 59.3926 91.1534C59.8812 91.1534 60.3159 91.2514 60.6966 91.4474C61.0801 91.6406 61.3926 91.9105 61.6341 92.2571C61.8755 92.6037 62.0318 93.0028 62.1028 93.4545H61.063C60.9664 93.0625 60.7789 92.7372 60.5005 92.4787C60.2221 92.2202 59.8528 92.0909 59.3926 92.0909C58.7164 92.0909 58.1838 92.3849 57.7946 92.973C57.4082 93.5611 57.2136 94.3864 57.2108 95.4489H57.2789C57.438 95.2074 57.627 95.0014 57.8457 94.831C58.0673 94.6577 58.3116 94.5241 58.5787 94.4304C58.8457 94.3366 59.1284 94.2898 59.4267 94.2898C59.9267 94.2898 60.3841 94.4148 60.7988 94.6648C61.2136 94.9119 61.546 95.2543 61.796 95.6918C62.046 96.1264 62.171 96.625 62.171 97.1875C62.171 97.7273 62.0502 98.2216 61.8088 98.6705C61.5673 99.1165 61.2278 99.4716 60.7903 99.7358C60.3556 99.9972 59.8443 100.125 59.2562 100.119ZM59.2562 99.1818C59.6142 99.1818 59.9352 99.0923 60.2193 98.9134C60.5062 98.7344 60.7321 98.4943 60.8968 98.1932C61.0645 97.892 61.1483 97.5568 61.1483 97.1875C61.1483 96.8267 61.0673 96.4986 60.9054 96.2031C60.7463 95.9048 60.5261 95.6676 60.2449 95.4915C59.9664 95.3153 59.6483 95.2273 59.2903 95.2273C59.0204 95.2273 58.769 95.2812 58.536 95.3892C58.3031 95.4943 58.0985 95.6392 57.9224 95.8239C57.7491 96.0085 57.6127 96.2202 57.5133 96.4588C57.4139 96.6946 57.3642 96.9432 57.3642 97.2045C57.3642 97.5511 57.4451 97.875 57.6071 98.1761C57.7718 98.4773 57.9963 98.7202 58.2804 98.9048C58.5673 99.0895 58.8926 99.1818 59.2562 99.1818ZM64.9537 98.8068L64.8855 99.267C64.8372 99.5909 64.7633 99.9375 64.6639 100.307C64.5673 100.676 64.4664 101.024 64.3613 101.351C64.2562 101.678 64.1696 101.938 64.1014 102.131H63.3343C63.3713 101.949 63.4196 101.709 63.4792 101.411C63.5389 101.112 63.5985 100.778 63.6582 100.409C63.7207 100.043 63.7718 99.6676 63.8116 99.2841L63.8627 98.8068H64.9537ZM70.4476 100L74.351 92.2784V92.2102H69.851V91.2727H75.4419V92.2614L71.5556 100H70.4476ZM77.0474 98.8068L76.9792 99.267C76.9309 99.5909 76.8571 99.9375 76.7576 100.307C76.661 100.676 76.5602 101.024 76.4551 101.351C76.35 101.678 76.2633 101.938 76.1951 102.131H75.4281C75.465 101.949 75.5133 101.709 75.573 101.411C75.6326 101.112 75.6923 100.778 75.752 100.409C75.8145 100.043 75.8656 99.6676 75.9054 99.2841L75.9565 98.8068H77.0474ZM84.9959 100.119C84.4959 100.119 84.0456 100.02 83.6451 99.821C83.2445 99.6222 82.9235 99.3494 82.682 99.0028C82.4405 98.6562 82.3084 98.2614 82.2857 97.8182H83.3084C83.3482 98.2131 83.5272 98.5398 83.8453 98.7983C84.1664 99.054 84.5499 99.1818 84.9959 99.1818C85.3539 99.1818 85.6721 99.098 85.9505 98.9304C86.2317 98.7628 86.4519 98.5327 86.611 98.2401C86.7729 97.9446 86.8539 97.6108 86.8539 97.2386C86.8539 96.858 86.7701 96.5185 86.6025 96.2202C86.4377 95.919 86.2104 95.6818 85.9206 95.5085C85.6309 95.3352 85.2999 95.2472 84.9277 95.2443C84.6607 95.2415 84.3865 95.2827 84.1053 95.3679C83.824 95.4503 83.5925 95.5568 83.4107 95.6875L82.4221 95.5682L82.9505 91.2727H87.4846V92.2102H83.8368L83.53 94.7841H83.5811C83.7601 94.642 83.9846 94.5241 84.2544 94.4304C84.5243 94.3366 84.8056 94.2898 85.0982 94.2898C85.6323 94.2898 86.1081 94.4176 86.5257 94.6733C86.9462 94.9261 87.2757 95.2727 87.5144 95.7131C87.7559 96.1534 87.8766 96.6562 87.8766 97.2216C87.8766 97.7784 87.7516 98.2756 87.5016 98.7131C87.2544 99.1477 86.9135 99.4915 86.4789 99.7443C86.0442 99.9943 85.5499 100.119 84.9959 100.119ZM90.7583 98.8068L90.6902 99.267C90.6419 99.5909 90.568 99.9375 90.4686 100.307C90.372 100.676 90.2711 101.024 90.166 101.351C90.0609 101.678 89.9743 101.938 89.9061 102.131H89.139C89.176 101.949 89.2243 101.709 89.2839 101.411C89.3436 101.112 89.4032 100.778 89.4629 100.409C89.5254 100.043 89.5765 99.6676 89.6163 99.2841L89.6674 98.8068H90.7583ZM95.775 98.2102V97.3409L99.6103 91.2727H100.241V92.6193H99.8148L96.9171 97.2045V97.2727H102.082V98.2102H95.775ZM99.883 100V97.946V97.5412V91.2727H100.889V100H99.883ZM104.786 98.8068L104.718 99.267C104.669 99.5909 104.595 99.9375 104.496 100.307C104.399 100.676 104.298 101.024 104.193 101.351C104.088 101.678 104.002 101.938 103.933 102.131H103.166C103.203 101.949 103.252 101.709 103.311 101.411C103.371 101.112 103.431 100.778 103.49 100.409C103.553 100.043 103.604 99.6676 103.644 99.2841L103.695 98.8068H104.786ZM110.007 100V99.233L112.888 96.0795C113.226 95.7102 113.504 95.3892 113.723 95.1165C113.942 94.8409 114.104 94.5824 114.209 94.3409C114.317 94.0966 114.371 93.8409 114.371 93.5739C114.371 93.267 114.297 93.0014 114.149 92.777C114.004 92.5526 113.805 92.3793 113.552 92.2571C113.3 92.1349 113.015 92.0739 112.7 92.0739C112.365 92.0739 112.072 92.1435 111.822 92.2827C111.575 92.419 111.383 92.6108 111.247 92.858C111.113 93.1051 111.047 93.3949 111.047 93.7273H110.041C110.041 93.2159 110.159 92.767 110.395 92.3807C110.631 91.9943 110.952 91.6932 111.358 91.4773C111.767 91.2614 112.226 91.1534 112.734 91.1534C113.246 91.1534 113.699 91.2614 114.094 91.4773C114.488 91.6932 114.798 91.9844 115.023 92.3509C115.247 92.7173 115.359 93.125 115.359 93.5739C115.359 93.8949 115.301 94.2088 115.184 94.5156C115.071 94.8196 114.872 95.1591 114.588 95.5341C114.307 95.9062 113.916 96.3608 113.416 96.8977L111.456 98.9943V99.0625H115.513V100H110.007ZM119.301 90.1818V101.091H116.778V100.256H118.346V91.017H116.778V90.1818H119.301Z" fill="#006CA9"/>
<path d="M167.905 101.091V90.1818H170.428V91.017H168.86V100.256H170.428V101.091H167.905ZM174.809 91.2727V100H173.753V92.3807H173.702L171.571 93.7955V92.7216L173.753 91.2727H174.809ZM178.321 98.8068L178.253 99.267C178.204 99.5909 178.131 99.9375 178.031 100.307C177.934 100.676 177.834 101.024 177.729 101.351C177.623 101.678 177.537 101.938 177.469 102.131H176.702C176.738 101.949 176.787 101.709 176.846 101.411C176.906 101.112 176.966 100.778 177.025 100.409C177.088 100.043 177.139 99.6676 177.179 99.2841L177.23 98.8068H178.321ZM183.542 100V99.233L186.423 96.0795C186.761 95.7102 187.039 95.3892 187.258 95.1165C187.477 94.8409 187.639 94.5824 187.744 94.3409C187.852 94.0966 187.906 93.8409 187.906 93.5739C187.906 93.267 187.832 93.0014 187.684 92.777C187.539 92.5526 187.34 92.3793 187.088 92.2571C186.835 92.1349 186.551 92.0739 186.235 92.0739C185.9 92.0739 185.607 92.1435 185.357 92.2827C185.11 92.419 184.919 92.6108 184.782 92.858C184.649 93.1051 184.582 93.3949 184.582 93.7273H183.576C183.576 93.2159 183.694 92.767 183.93 92.3807C184.166 91.9943 184.487 91.6932 184.893 91.4773C185.302 91.2614 185.761 91.1534 186.269 91.1534C186.781 91.1534 187.234 91.2614 187.629 91.4773C188.024 91.6932 188.333 91.9844 188.558 92.3509C188.782 92.7173 188.894 93.125 188.894 93.5739C188.894 93.8949 188.836 94.2088 188.72 94.5156C188.606 94.8196 188.407 95.1591 188.123 95.5341C187.842 95.9062 187.451 96.3608 186.951 96.8977L184.991 98.9943V99.0625H189.048V100H183.542ZM192.325 98.8068L192.257 99.267C192.208 99.5909 192.134 99.9375 192.035 100.307C191.938 100.676 191.838 101.024 191.732 101.351C191.627 101.678 191.541 101.938 191.472 102.131H190.705C190.742 101.949 190.791 101.709 190.85 101.411C190.91 101.112 190.97 100.778 191.029 100.409C191.092 100.043 191.143 99.6676 191.183 99.2841L191.234 98.8068H192.325ZM200.495 100.119C199.932 100.119 199.431 100.023 198.991 99.8295C198.553 99.6364 198.205 99.3679 197.947 99.0241C197.691 98.6776 197.552 98.2756 197.529 97.8182H198.603C198.626 98.0994 198.722 98.3423 198.893 98.5469C199.063 98.7486 199.286 98.9048 199.562 99.0156C199.837 99.1264 200.143 99.1818 200.478 99.1818C200.853 99.1818 201.185 99.1165 201.475 98.9858C201.765 98.8551 201.992 98.6733 202.157 98.4403C202.322 98.2074 202.404 97.9375 202.404 97.6307C202.404 97.3097 202.324 97.027 202.165 96.7827C202.006 96.5355 201.773 96.3423 201.466 96.2031C201.16 96.0639 200.785 95.9943 200.341 95.9943H199.643V95.0568H200.341C200.688 95.0568 200.992 94.9943 201.253 94.8693C201.518 94.7443 201.724 94.5682 201.871 94.3409C202.022 94.1136 202.097 93.8466 202.097 93.5398C202.097 93.2443 202.032 92.9872 201.901 92.7685C201.77 92.5497 201.586 92.3793 201.347 92.2571C201.111 92.1349 200.833 92.0739 200.512 92.0739C200.211 92.0739 199.927 92.1293 199.66 92.2401C199.395 92.348 199.18 92.5057 199.012 92.7131C198.844 92.9176 198.753 93.1648 198.739 93.4545H197.716C197.733 92.9972 197.871 92.5966 198.13 92.2528C198.388 91.9062 198.726 91.6364 199.144 91.4432C199.564 91.25 200.026 91.1534 200.529 91.1534C201.069 91.1534 201.532 91.2628 201.918 91.4815C202.305 91.6974 202.601 91.983 202.809 92.3381C203.016 92.6932 203.12 93.0767 203.12 93.4886C203.12 93.9801 202.991 94.3991 202.732 94.7457C202.476 95.0923 202.128 95.3324 201.688 95.4659V95.5341C202.239 95.625 202.67 95.8594 202.979 96.2372C203.289 96.6122 203.444 97.0767 203.444 97.6307C203.444 98.1051 203.314 98.5312 203.056 98.9091C202.8 99.2841 202.451 99.5795 202.008 99.7955C201.564 100.011 201.06 100.119 200.495 100.119ZM206.434 98.8068L206.366 99.267C206.318 99.5909 206.244 99.9375 206.144 100.307C206.048 100.676 205.947 101.024 205.842 101.351C205.737 101.678 205.65 101.938 205.582 102.131H204.815C204.852 101.949 204.9 101.709 204.96 101.411C205.019 101.112 205.079 100.778 205.139 100.409C205.201 100.043 205.252 99.6676 205.292 99.2841L205.343 98.8068H206.434ZM211.451 98.2102V97.3409L215.286 91.2727H215.917V92.6193H215.491L212.593 97.2045V97.2727H217.758V98.2102H211.451ZM215.559 100V97.946V97.5412V91.2727H216.564V100H215.559ZM220.461 98.8068L220.393 99.267C220.345 99.5909 220.271 99.9375 220.172 100.307C220.075 100.676 219.974 101.024 219.869 101.351C219.764 101.678 219.677 101.938 219.609 102.131H218.842C218.879 101.949 218.927 101.709 218.987 101.411C219.047 101.112 219.106 100.778 219.166 100.409C219.229 100.043 219.28 99.6676 219.319 99.2841L219.371 98.8068H220.461ZM228.41 100.119C227.91 100.119 227.46 100.02 227.059 99.821C226.659 99.6222 226.338 99.3494 226.096 99.0028C225.855 98.6562 225.722 98.2614 225.7 97.8182H226.722C226.762 98.2131 226.941 98.5398 227.259 98.7983C227.58 99.054 227.964 99.1818 228.41 99.1818C228.768 99.1818 229.086 99.098 229.365 98.9304C229.646 98.7628 229.866 98.5327 230.025 98.2401C230.187 97.9446 230.268 97.6108 230.268 97.2386C230.268 96.858 230.184 96.5185 230.017 96.2202C229.852 95.919 229.624 95.6818 229.335 95.5085C229.045 95.3352 228.714 95.2472 228.342 95.2443C228.075 95.2415 227.801 95.2827 227.519 95.3679C227.238 95.4503 227.007 95.5568 226.825 95.6875L225.836 95.5682L226.365 91.2727H230.899V92.2102H227.251L226.944 94.7841H226.995C227.174 94.642 227.399 94.5241 227.669 94.4304C227.938 94.3366 228.22 94.2898 228.512 94.2898C229.046 94.2898 229.522 94.4176 229.94 94.6733C230.36 94.9261 230.69 95.2727 230.928 95.7131C231.17 96.1534 231.291 96.6562 231.291 97.2216C231.291 97.7784 231.166 98.2756 230.916 98.7131C230.669 99.1477 230.328 99.4915 229.893 99.7443C229.458 99.9943 228.964 100.119 228.41 100.119ZM234.172 98.8068L234.104 99.267C234.056 99.5909 233.982 99.9375 233.883 100.307C233.786 100.676 233.685 101.024 233.58 101.351C233.475 101.678 233.388 101.938 233.32 102.131H232.553C232.59 101.949 232.638 101.709 232.698 101.411C232.758 101.112 232.817 100.778 232.877 100.409C232.939 100.043 232.991 99.6676 233.03 99.2841L233.081 98.8068H234.172ZM242.291 100.119C241.933 100.114 241.575 100.045 241.218 99.9148C240.86 99.7841 240.533 99.5639 240.237 99.2543C239.942 98.9418 239.705 98.5199 239.526 97.9886C239.347 97.4545 239.257 96.7841 239.257 95.9773C239.257 95.2045 239.33 94.5199 239.475 93.9233C239.619 93.3239 239.83 92.8196 240.105 92.4105C240.381 91.9986 240.713 91.6861 241.102 91.473C241.494 91.2599 241.936 91.1534 242.428 91.1534C242.916 91.1534 243.351 91.2514 243.732 91.4474C244.115 91.6406 244.428 91.9105 244.669 92.2571C244.911 92.6037 245.067 93.0028 245.138 93.4545H244.098C244.002 93.0625 243.814 92.7372 243.536 92.4787C243.257 92.2202 242.888 92.0909 242.428 92.0909C241.752 92.0909 241.219 92.3849 240.83 92.973C240.443 93.5611 240.249 94.3864 240.246 95.4489H240.314C240.473 95.2074 240.662 95.0014 240.881 94.831C241.102 94.6577 241.347 94.5241 241.614 94.4304C241.881 94.3366 242.164 94.2898 242.462 94.2898C242.962 94.2898 243.419 94.4148 243.834 94.6648C244.249 94.9119 244.581 95.2543 244.831 95.6918C245.081 96.1264 245.206 96.625 245.206 97.1875C245.206 97.7273 245.085 98.2216 244.844 98.6705C244.602 99.1165 244.263 99.4716 243.825 99.7358C243.391 99.9972 242.879 100.125 242.291 100.119ZM242.291 99.1818C242.649 99.1818 242.97 99.0923 243.254 98.9134C243.541 98.7344 243.767 98.4943 243.932 98.1932C244.1 97.892 244.183 97.5568 244.183 97.1875C244.183 96.8267 244.102 96.4986 243.941 96.2031C243.781 95.9048 243.561 95.6676 243.28 95.4915C243.002 95.3153 242.683 95.2273 242.325 95.2273C242.056 95.2273 241.804 95.2812 241.571 95.3892C241.338 95.4943 241.134 95.6392 240.958 95.8239C240.784 96.0085 240.648 96.2202 240.548 96.4588C240.449 96.6946 240.399 96.9432 240.399 97.2045C240.399 97.5511 240.48 97.875 240.642 98.1761C240.807 98.4773 241.031 98.7202 241.316 98.9048C241.602 99.0895 241.928 99.1818 242.291 99.1818ZM247.989 98.8068L247.921 99.267C247.872 99.5909 247.798 99.9375 247.699 100.307C247.602 100.676 247.502 101.024 247.396 101.351C247.291 101.678 247.205 101.938 247.137 102.131H246.369C246.406 101.949 246.455 101.709 246.514 101.411C246.574 101.112 246.634 100.778 246.693 100.409C246.756 100.043 246.807 99.6676 246.847 99.2841L246.898 98.8068H247.989ZM253.483 100L257.386 92.2784V92.2102H252.886V91.2727H258.477V92.2614L254.591 100H253.483ZM262.094 90.1818V101.091H259.571V100.256H261.139V91.017H259.571V90.1818H262.094Z" fill="#006CA9"/>
<path d="M310.637 101.091V90.1818H313.16V91.017H311.592V100.256H313.16V101.091H310.637ZM314.474 100V99.233L317.354 96.0795C317.692 95.7102 317.971 95.3892 318.19 95.1165C318.408 94.8409 318.57 94.5824 318.675 94.3409C318.783 94.0966 318.837 93.8409 318.837 93.5739C318.837 93.267 318.763 93.0014 318.616 92.777C318.471 92.5526 318.272 92.3793 318.019 92.2571C317.766 92.1349 317.482 92.0739 317.167 92.0739C316.832 92.0739 316.539 92.1435 316.289 92.2827C316.042 92.419 315.85 92.6108 315.714 92.858C315.58 93.1051 315.513 93.3949 315.513 93.7273H314.508C314.508 93.2159 314.626 92.767 314.862 92.3807C315.097 91.9943 315.418 91.6932 315.825 91.4773C316.234 91.2614 316.692 91.1534 317.201 91.1534C317.712 91.1534 318.165 91.2614 318.56 91.4773C318.955 91.6932 319.265 91.9844 319.489 92.3509C319.714 92.7173 319.826 93.125 319.826 93.5739C319.826 93.8949 319.768 94.2088 319.651 94.5156C319.538 94.8196 319.339 95.1591 319.055 95.5341C318.773 95.9062 318.383 96.3608 317.883 96.8977L315.923 98.9943V99.0625H319.979V100H314.474ZM323.256 98.8068L323.188 99.267C323.14 99.5909 323.066 99.9375 322.967 100.307C322.87 100.676 322.769 101.024 322.664 101.351C322.559 101.678 322.472 101.938 322.404 102.131H321.637C321.674 101.949 321.722 101.709 321.782 101.411C321.842 101.112 321.901 100.778 321.961 100.409C322.023 100.043 322.075 99.6676 322.114 99.2841L322.165 98.8068H323.256ZM331.426 100.119C330.864 100.119 330.363 100.023 329.922 99.8295C329.485 99.6364 329.137 99.3679 328.878 99.0241C328.623 98.6776 328.483 98.2756 328.461 97.8182H329.534C329.557 98.0994 329.654 98.3423 329.824 98.5469C329.995 98.7486 330.218 98.9048 330.493 99.0156C330.769 99.1264 331.074 99.1818 331.409 99.1818C331.784 99.1818 332.117 99.1165 332.407 98.9858C332.696 98.8551 332.924 98.6733 333.088 98.4403C333.253 98.2074 333.336 97.9375 333.336 97.6307C333.336 97.3097 333.256 97.027 333.097 96.7827C332.938 96.5355 332.705 96.3423 332.398 96.2031C332.091 96.0639 331.716 95.9943 331.273 95.9943H330.574V95.0568H331.273C331.62 95.0568 331.924 94.9943 332.185 94.8693C332.449 94.7443 332.655 94.5682 332.803 94.3409C332.953 94.1136 333.029 93.8466 333.029 93.5398C333.029 93.2443 332.963 92.9872 332.833 92.7685C332.702 92.5497 332.517 92.3793 332.279 92.2571C332.043 92.1349 331.765 92.0739 331.444 92.0739C331.142 92.0739 330.858 92.1293 330.591 92.2401C330.327 92.348 330.111 92.5057 329.944 92.7131C329.776 92.9176 329.685 93.1648 329.671 93.4545H328.648C328.665 92.9972 328.803 92.5966 329.061 92.2528C329.32 91.9062 329.658 91.6364 330.076 91.4432C330.496 91.25 330.958 91.1534 331.461 91.1534C332 91.1534 332.463 91.2628 332.85 91.4815C333.236 91.6974 333.533 91.983 333.74 92.3381C333.948 92.6932 334.051 93.0767 334.051 93.4886C334.051 93.9801 333.922 94.3991 333.664 94.7457C333.408 95.0923 333.06 95.3324 332.62 95.4659V95.5341C333.171 95.625 333.601 95.8594 333.911 96.2372C334.221 96.6122 334.375 97.0767 334.375 97.6307C334.375 98.1051 334.246 98.5312 333.988 98.9091C333.732 99.2841 333.382 99.5795 332.939 99.7955C332.496 100.011 331.992 100.119 331.426 100.119ZM337.366 98.8068L337.298 99.267C337.249 99.5909 337.175 99.9375 337.076 100.307C336.979 100.676 336.879 101.024 336.773 101.351C336.668 101.678 336.582 101.938 336.513 102.131H335.746C335.783 101.949 335.832 101.709 335.891 101.411C335.951 101.112 336.011 100.778 336.07 100.409C336.133 100.043 336.184 99.6676 336.224 99.2841L336.275 98.8068H337.366ZM345.485 100.119C345.127 100.114 344.769 100.045 344.411 99.9148C344.053 99.7841 343.726 99.5639 343.431 99.2543C343.135 98.9418 342.898 98.5199 342.719 97.9886C342.54 97.4545 342.451 96.7841 342.451 95.9773C342.451 95.2045 342.523 94.5199 342.668 93.9233C342.813 93.3239 343.023 92.8196 343.299 92.4105C343.574 91.9986 343.907 91.6861 344.296 91.473C344.688 91.2599 345.13 91.1534 345.621 91.1534C346.11 91.1534 346.544 91.2514 346.925 91.4474C347.309 91.6406 347.621 91.9105 347.863 92.2571C348.104 92.6037 348.26 93.0028 348.331 93.4545H347.292C347.195 93.0625 347.007 92.7372 346.729 92.4787C346.451 92.2202 346.081 92.0909 345.621 92.0909C344.945 92.0909 344.412 92.3849 344.023 92.973C343.637 93.5611 343.442 94.3864 343.439 95.4489H343.507C343.667 95.2074 343.855 95.0014 344.074 94.831C344.296 94.6577 344.54 94.5241 344.807 94.4304C345.074 94.3366 345.357 94.2898 345.655 94.2898C346.155 94.2898 346.613 94.4148 347.027 94.6648C347.442 94.9119 347.775 95.2543 348.025 95.6918C348.275 96.1264 348.4 96.625 348.4 97.1875C348.4 97.7273 348.279 98.2216 348.037 98.6705C347.796 99.1165 347.456 99.4716 347.019 99.7358C346.584 99.9972 346.073 100.125 345.485 100.119ZM345.485 99.1818C345.843 99.1818 346.164 99.0923 346.448 98.9134C346.735 98.7344 346.961 98.4943 347.125 98.1932C347.293 97.892 347.377 97.5568 347.377 97.1875C347.377 96.8267 347.296 96.4986 347.134 96.2031C346.975 95.9048 346.755 95.6676 346.473 95.4915C346.195 95.3153 345.877 95.2273 345.519 95.2273C345.249 95.2273 344.998 95.2812 344.765 95.3892C344.532 95.4943 344.327 95.6392 344.151 95.8239C343.978 96.0085 343.841 96.2202 343.742 96.4588C343.642 96.6946 343.593 96.9432 343.593 97.2045C343.593 97.5511 343.674 97.875 343.836 98.1761C344 98.4773 344.225 98.7202 344.509 98.9048C344.796 99.0895 345.121 99.1818 345.485 99.1818ZM351.182 98.8068L351.114 99.267C351.066 99.5909 350.992 99.9375 350.892 100.307C350.796 100.676 350.695 101.024 350.59 101.351C350.485 101.678 350.398 101.938 350.33 102.131H349.563C349.6 101.949 349.648 101.709 349.708 101.411C349.767 101.112 349.827 100.778 349.887 100.409C349.949 100.043 350 99.6676 350.04 99.2841L350.091 98.8068H351.182ZM359.131 100.119C358.631 100.119 358.18 100.02 357.78 99.821C357.379 99.6222 357.058 99.3494 356.817 99.0028C356.575 98.6562 356.443 98.2614 356.42 97.8182H357.443C357.483 98.2131 357.662 98.5398 357.98 98.7983C358.301 99.054 358.685 99.1818 359.131 99.1818C359.489 99.1818 359.807 99.098 360.085 98.9304C360.366 98.7628 360.587 98.5327 360.746 98.2401C360.908 97.9446 360.989 97.6108 360.989 97.2386C360.989 96.858 360.905 96.5185 360.737 96.2202C360.572 95.919 360.345 95.6818 360.055 95.5085C359.766 95.3352 359.435 95.2472 359.062 95.2443C358.795 95.2415 358.521 95.2827 358.24 95.3679C357.959 95.4503 357.727 95.5568 357.545 95.6875L356.557 95.5682L357.085 91.2727H361.619V92.2102H357.972L357.665 94.7841H357.716C357.895 94.642 358.119 94.5241 358.389 94.4304C358.659 94.3366 358.94 94.2898 359.233 94.2898C359.767 94.2898 360.243 94.4176 360.661 94.6733C361.081 94.9261 361.411 95.2727 361.649 95.7131C361.891 96.1534 362.011 96.6562 362.011 97.2216C362.011 97.7784 361.886 98.2756 361.636 98.7131C361.389 99.1477 361.048 99.4915 360.614 99.7443C360.179 99.9943 359.685 100.119 359.131 100.119ZM364.893 98.8068L364.825 99.267C364.777 99.5909 364.703 99.9375 364.603 100.307C364.507 100.676 364.406 101.024 364.301 101.351C364.196 101.678 364.109 101.938 364.041 102.131H363.274C363.311 101.949 363.359 101.709 363.419 101.411C363.478 101.112 363.538 100.778 363.598 100.409C363.66 100.043 363.711 99.6676 363.751 99.2841L363.802 98.8068H364.893ZM369.91 98.2102V97.3409L373.745 91.2727H374.376V92.6193H373.95L371.052 97.2045V97.2727H376.217V98.2102H369.91ZM374.018 100V97.946V97.5412V91.2727H375.023V100H374.018ZM378.92 98.8068L378.852 99.267C378.804 99.5909 378.73 99.9375 378.631 100.307C378.534 100.676 378.433 101.024 378.328 101.351C378.223 101.678 378.136 101.938 378.068 102.131H377.301C377.338 101.949 377.386 101.709 377.446 101.411C377.506 101.112 377.565 100.778 377.625 100.409C377.688 100.043 377.739 99.6676 377.778 99.2841L377.83 98.8068H378.92ZM387.039 100.119C386.681 100.114 386.324 100.045 385.966 99.9148C385.608 99.7841 385.281 99.5639 384.985 99.2543C384.69 98.9418 384.453 98.5199 384.274 97.9886C384.095 97.4545 384.005 96.7841 384.005 95.9773C384.005 95.2045 384.078 94.5199 384.223 93.9233C384.368 93.3239 384.578 92.8196 384.853 92.4105C385.129 91.9986 385.461 91.6861 385.85 91.473C386.243 91.2599 386.684 91.1534 387.176 91.1534C387.664 91.1534 388.099 91.2514 388.48 91.4474C388.863 91.6406 389.176 91.9105 389.417 92.2571C389.659 92.6037 389.815 93.0028 389.886 93.4545H388.846C388.75 93.0625 388.562 92.7372 388.284 92.4787C388.005 92.2202 387.636 92.0909 387.176 92.0909C386.5 92.0909 385.967 92.3849 385.578 92.973C385.191 93.5611 384.997 94.3864 384.994 95.4489H385.062C385.221 95.2074 385.41 95.0014 385.629 94.831C385.85 94.6577 386.095 94.5241 386.362 94.4304C386.629 94.3366 386.912 94.2898 387.21 94.2898C387.71 94.2898 388.167 94.4148 388.582 94.6648C388.997 94.9119 389.329 95.2543 389.579 95.6918C389.829 96.1264 389.954 96.625 389.954 97.1875C389.954 97.7273 389.833 98.2216 389.592 98.6705C389.35 99.1165 389.011 99.4716 388.574 99.7358C388.139 99.9972 387.627 100.125 387.039 100.119ZM387.039 99.1818C387.397 99.1818 387.718 99.0923 388.002 98.9134C388.289 98.7344 388.515 98.4943 388.68 98.1932C388.848 97.892 388.931 97.5568 388.931 97.1875C388.931 96.8267 388.85 96.4986 388.689 96.2031C388.529 95.9048 388.309 95.6676 388.028 95.4915C387.75 95.3153 387.431 95.2273 387.074 95.2273C386.804 95.2273 386.552 95.2812 386.319 95.3892C386.086 95.4943 385.882 95.6392 385.706 95.8239C385.532 96.0085 385.396 96.2202 385.297 96.4588C385.197 96.6946 385.147 96.9432 385.147 97.2045C385.147 97.5511 385.228 97.875 385.39 98.1761C385.555 98.4773 385.779 98.7202 386.064 98.9048C386.35 99.0895 386.676 99.1818 387.039 99.1818ZM392.737 98.8068L392.669 99.267C392.62 99.5909 392.547 99.9375 392.447 100.307C392.35 100.676 392.25 101.024 392.145 101.351C392.039 101.678 391.953 101.938 391.885 102.131H391.118C391.154 101.949 391.203 101.709 391.262 101.411C391.322 101.112 391.382 100.778 391.441 100.409C391.504 100.043 391.555 99.6676 391.595 99.2841L391.646 98.8068H392.737ZM400.907 100.119C400.344 100.119 399.843 100.023 399.403 99.8295C398.965 99.6364 398.617 99.3679 398.359 99.0241C398.103 98.6776 397.964 98.2756 397.941 97.8182H399.015C399.038 98.0994 399.134 98.3423 399.305 98.5469C399.475 98.7486 399.698 98.9048 399.974 99.0156C400.249 99.1264 400.555 99.1818 400.89 99.1818C401.265 99.1818 401.597 99.1165 401.887 98.9858C402.177 98.8551 402.404 98.6733 402.569 98.4403C402.734 98.2074 402.816 97.9375 402.816 97.6307C402.816 97.3097 402.737 97.027 402.577 96.7827C402.418 96.5355 402.185 96.3423 401.879 96.2031C401.572 96.0639 401.197 95.9943 400.754 95.9943H400.055V95.0568H400.754C401.1 95.0568 401.404 94.9943 401.665 94.8693C401.93 94.7443 402.136 94.5682 402.283 94.3409C402.434 94.1136 402.509 93.8466 402.509 93.5398C402.509 93.2443 402.444 92.9872 402.313 92.7685C402.183 92.5497 401.998 92.3793 401.759 92.2571C401.523 92.1349 401.245 92.0739 400.924 92.0739C400.623 92.0739 400.339 92.1293 400.072 92.2401C399.808 92.348 399.592 92.5057 399.424 92.7131C399.256 92.9176 399.165 93.1648 399.151 93.4545H398.129C398.146 92.9972 398.283 92.5966 398.542 92.2528C398.8 91.9062 399.138 91.6364 399.556 91.4432C399.977 91.25 400.438 91.1534 400.941 91.1534C401.481 91.1534 401.944 91.2628 402.33 91.4815C402.717 91.6974 403.013 91.983 403.221 92.3381C403.428 92.6932 403.532 93.0767 403.532 93.4886C403.532 93.9801 403.403 94.3991 403.144 94.7457C402.888 95.0923 402.54 95.3324 402.1 95.4659V95.5341C402.651 95.625 403.082 95.8594 403.391 96.2372C403.701 96.6122 403.856 97.0767 403.856 97.6307C403.856 98.1051 403.727 98.5312 403.468 98.9091C403.212 99.2841 402.863 99.5795 402.42 99.7955C401.977 100.011 401.472 100.119 400.907 100.119ZM406.846 98.8068L406.778 99.267C406.73 99.5909 406.656 99.9375 406.556 100.307C406.46 100.676 406.359 101.024 406.254 101.351C406.149 101.678 406.062 101.938 405.994 102.131H405.227C405.264 101.949 405.312 101.709 405.372 101.411C405.431 101.112 405.491 100.778 405.551 100.409C405.613 100.043 405.664 99.6676 405.704 99.2841L405.755 98.8068H406.846ZM412.067 100V99.233L414.948 96.0795C415.286 95.7102 415.565 95.3892 415.783 95.1165C416.002 94.8409 416.164 94.5824 416.269 94.3409C416.377 94.0966 416.431 93.8409 416.431 93.5739C416.431 93.267 416.357 93.0014 416.21 92.777C416.065 92.5526 415.866 92.3793 415.613 92.2571C415.36 92.1349 415.076 92.0739 414.761 92.0739C414.425 92.0739 414.133 92.1435 413.883 92.2827C413.636 92.419 413.444 92.6108 413.308 92.858C413.174 93.1051 413.107 93.3949 413.107 93.7273H412.102C412.102 93.2159 412.219 92.767 412.455 92.3807C412.691 91.9943 413.012 91.6932 413.418 91.4773C413.827 91.2614 414.286 91.1534 414.795 91.1534C415.306 91.1534 415.759 91.2614 416.154 91.4773C416.549 91.6932 416.859 91.9844 417.083 92.3509C417.308 92.7173 417.42 93.125 417.42 93.5739C417.42 93.8949 417.362 94.2088 417.245 94.5156C417.131 94.8196 416.933 95.1591 416.648 95.5341C416.367 95.9062 415.977 96.3608 415.477 96.8977L413.516 98.9943V99.0625H417.573V100H412.067ZM421.362 90.1818V101.091H418.839V100.256H420.407V91.017H418.839V90.1818H421.362Z" fill="#006CA9"/>
<line y1="87.5" x2="435" y2="87.5" stroke="#737370"/>
<rect x="13" y="64" width="10" height="20" fill="#82D1F5"/>
<rect x="167" y="74" width="10" height="10" fill="#82D1F5"/>
<rect x="181" y="64" width="10" height="20" fill="#82D1F5"/>
<rect x="313" y="64" width="10" height="20" fill="#82D1F5"/>
<rect x="411" y="64" width="10" height="20" fill="#82D1F5"/>
<rect x="111" y="64" width="10" height="20" fill="#82D1F5"/>
<rect x="69" y="14" width="10" height="70" fill="#82D1F5"/>
<rect x="251" y="14" width="10" height="70" fill="#82D1F5"/>
<rect x="55" y="24" width="10" height="60" fill="#82D1F5"/>
<rect x="237" y="24" width="10" height="60" fill="#82D1F5"/>
<rect x="341" y="24" width="10" height="60" fill="#82D1F5"/>
<rect x="383" y="24" width="10" height="60" fill="#82D1F5"/>
<rect x="41" y="34" width="10" height="50" fill="#82D1F5"/>
<rect x="97" y="44" width="10" height="40" fill="#82D1F5"/>
<rect x="209" y="44" width="10" height="40" fill="#82D1F5"/>
<rect x="369" y="44" width="10" height="40" fill="#82D1F5"/>
<rect x="83" y="34" width="10" height="50" fill="#82D1F5"/>
<rect x="223" y="34" width="10" height="50" fill="#82D1F5"/>
<rect x="355" y="34" width="10" height="50" fill="#82D1F5"/>
<rect x="27" y="54" width="10" height="30" fill="#82D1F5"/>
<rect x="195" y="54" width="10" height="30" fill="#82D1F5"/>
<rect x="327" y="54" width="10" height="30" fill="#82D1F5"/>
<rect x="397" y="54" width="10" height="30" fill="#82D1F5"/>
<path d="M77.7103 0L79 1.00858L73.4081 10H72.1184L69 5.12876L70.2897 3.78755L72.7632 6.36266L77.7103 0Z" fill="#737370"/>
<path d="M391.71 0L393 1.00858L387.408 10H386.118L383 5.12876L384.29 3.78755L386.763 6.36266L391.71 0Z" fill="#737370"/>
<path d="M349.71 0L351 1.00858L345.408 10H344.118L341 5.12876L342.29 3.78755L344.763 6.36266L349.71 0Z" fill="#737370"/>
<path d="M259.71 0L261 1.00858L255.408 10H254.118L251 5.12876L252.29 3.78755L254.763 6.36266L259.71 0Z" fill="#737370"/>
<path d="M53.7195 121V112.273H59.4979V113.794H55.5646V115.874H59.1143V117.395H55.5646V121H53.7195ZM62.4893 121.124C62.0717 121.124 61.6996 121.051 61.3729 120.906C61.0462 120.759 60.7876 120.541 60.5973 120.254C60.4098 119.964 60.3161 119.604 60.3161 119.172C60.3161 118.808 60.3828 118.503 60.5163 118.256C60.6499 118.009 60.8317 117.81 61.0618 117.659C61.2919 117.509 61.5533 117.395 61.8459 117.318C62.1413 117.241 62.451 117.188 62.7749 117.156C63.1555 117.116 63.4624 117.08 63.6953 117.045C63.9283 117.009 64.0973 116.955 64.2024 116.884C64.3075 116.812 64.3601 116.707 64.3601 116.568V116.543C64.3601 116.273 64.2749 116.064 64.1044 115.916C63.9368 115.768 63.6982 115.695 63.3885 115.695C63.0618 115.695 62.8018 115.767 62.6087 115.912C62.4155 116.054 62.2876 116.233 62.2251 116.449L60.5462 116.312C60.6314 115.915 60.799 115.571 61.049 115.281C61.299 114.989 61.6214 114.764 62.0163 114.608C62.4141 114.449 62.8743 114.369 63.397 114.369C63.7607 114.369 64.1087 114.412 64.4411 114.497C64.7763 114.582 65.0732 114.714 65.3317 114.893C65.593 115.072 65.799 115.303 65.9496 115.584C66.1001 115.862 66.1754 116.196 66.1754 116.585V121H64.4538V120.092H64.4027C64.2976 120.297 64.157 120.477 63.9808 120.634C63.8047 120.787 63.593 120.908 63.3459 120.996C63.0987 121.081 62.8132 121.124 62.4893 121.124ZM63.0092 119.871C63.2763 119.871 63.5121 119.818 63.7166 119.713C63.9212 119.605 64.0817 119.46 64.1982 119.278C64.3146 119.097 64.3729 118.891 64.3729 118.661V117.966C64.3161 118.003 64.2379 118.037 64.1385 118.068C64.0419 118.097 63.9325 118.124 63.8104 118.149C63.6882 118.172 63.5661 118.193 63.4439 118.213C63.3217 118.23 63.2109 118.246 63.1115 118.26C62.8984 118.291 62.7124 118.341 62.5533 118.409C62.3942 118.477 62.2706 118.57 62.1825 118.686C62.0945 118.8 62.0504 118.942 62.0504 119.112C62.0504 119.359 62.1399 119.548 62.3189 119.679C62.5007 119.807 62.7308 119.871 63.0092 119.871ZM69.3991 112.273V121H67.5838V112.273H69.3991ZM76.2994 116.321L74.6374 116.423C74.609 116.281 74.5479 116.153 74.4542 116.04C74.3604 115.923 74.2369 115.831 74.0835 115.763C73.9329 115.692 73.7525 115.656 73.5423 115.656C73.261 115.656 73.0238 115.716 72.8306 115.835C72.6374 115.952 72.5408 116.108 72.5408 116.304C72.5408 116.46 72.6033 116.592 72.7283 116.7C72.8533 116.808 73.0678 116.895 73.3718 116.96L74.5565 117.199C75.1928 117.33 75.6673 117.54 75.9798 117.83C76.2923 118.119 76.4485 118.5 76.4485 118.972C76.4485 119.401 76.3221 119.777 76.0692 120.101C75.8192 120.425 75.4755 120.678 75.038 120.859C74.6033 121.038 74.1019 121.128 73.5337 121.128C72.6673 121.128 71.9769 120.947 71.4627 120.587C70.9513 120.223 70.6516 119.729 70.5636 119.104L72.3491 119.01C72.4031 119.274 72.5337 119.476 72.7411 119.615C72.9485 119.751 73.2141 119.82 73.538 119.82C73.8562 119.82 74.1119 119.759 74.305 119.636C74.5011 119.511 74.6005 119.351 74.6033 119.155C74.6005 118.99 74.5309 118.855 74.3945 118.75C74.2582 118.642 74.0479 118.56 73.7638 118.503L72.6303 118.277C71.9911 118.149 71.5153 117.928 71.2028 117.612C70.8931 117.297 70.7383 116.895 70.7383 116.406C70.7383 115.986 70.8519 115.624 71.0792 115.32C71.3093 115.016 71.6317 114.781 72.0465 114.616C72.4641 114.452 72.9528 114.369 73.5124 114.369C74.3391 114.369 74.9897 114.544 75.4641 114.893C75.9414 115.243 76.2198 115.719 76.2994 116.321ZM80.5746 121.128C79.9013 121.128 79.3217 120.991 78.8359 120.719C78.353 120.443 77.9808 120.054 77.7195 119.551C77.4581 119.045 77.3274 118.447 77.3274 117.757C77.3274 117.084 77.4581 116.493 77.7195 115.984C77.9808 115.476 78.3487 115.08 78.8232 114.795C79.3004 114.511 79.8601 114.369 80.5021 114.369C80.9339 114.369 81.3359 114.439 81.7081 114.578C82.0831 114.714 82.4098 114.92 82.6882 115.196C82.9695 115.472 83.1882 115.818 83.3445 116.236C83.5007 116.651 83.5788 117.136 83.5788 117.693V118.192H78.0518V117.067H81.87C81.87 116.805 81.8132 116.574 81.6996 116.372C81.5859 116.17 81.4283 116.013 81.2266 115.899C81.0277 115.783 80.7962 115.724 80.532 115.724C80.2564 115.724 80.0121 115.788 79.799 115.916C79.5888 116.041 79.424 116.21 79.3047 116.423C79.1854 116.634 79.1243 116.868 79.1214 117.126V118.196C79.1214 118.52 79.1811 118.8 79.3004 119.036C79.4226 119.271 79.5945 119.453 79.8161 119.581C80.0376 119.709 80.3004 119.773 80.6044 119.773C80.8061 119.773 80.9908 119.744 81.1584 119.688C81.326 119.631 81.4695 119.545 81.5888 119.432C81.7081 119.318 81.799 119.179 81.8615 119.014L83.5405 119.125C83.4553 119.528 83.2805 119.881 83.0163 120.182C82.755 120.48 82.4169 120.713 82.0021 120.881C81.5902 121.045 81.1143 121.128 80.5746 121.128Z" fill="#FA8F00"/>
<path d="M356.485 113.794V112.273H363.652V113.794H360.98V121H359.157V113.794H356.485ZM364.119 121V114.455H365.879V115.597H365.947C366.066 115.19 366.267 114.884 366.548 114.676C366.829 114.466 367.153 114.361 367.52 114.361C367.61 114.361 367.708 114.366 367.814 114.378C367.919 114.389 368.011 114.405 368.091 114.425V116.036C368.005 116.01 367.887 115.987 367.737 115.967C367.586 115.947 367.449 115.938 367.324 115.938C367.056 115.938 366.818 115.996 366.608 116.112C366.4 116.226 366.235 116.385 366.113 116.589C365.994 116.794 365.934 117.03 365.934 117.297V121H364.119ZM373.227 118.213V114.455H375.042V121H373.299V119.811H373.231C373.083 120.195 372.837 120.503 372.494 120.736C372.153 120.969 371.737 121.085 371.245 121.085C370.808 121.085 370.423 120.986 370.09 120.787C369.758 120.588 369.498 120.305 369.31 119.939C369.126 119.572 369.032 119.134 369.029 118.622V114.455H370.844V118.298C370.847 118.685 370.951 118.99 371.156 119.214C371.36 119.439 371.634 119.551 371.978 119.551C372.197 119.551 372.401 119.501 372.592 119.402C372.782 119.3 372.935 119.149 373.052 118.95C373.171 118.751 373.229 118.506 373.227 118.213ZM379.477 121.128C378.804 121.128 378.224 120.991 377.738 120.719C377.255 120.443 376.883 120.054 376.622 119.551C376.36 119.045 376.23 118.447 376.23 117.757C376.23 117.084 376.36 116.493 376.622 115.984C376.883 115.476 377.251 115.08 377.725 114.795C378.203 114.511 378.762 114.369 379.404 114.369C379.836 114.369 380.238 114.439 380.61 114.578C380.985 114.714 381.312 114.92 381.591 115.196C381.872 115.472 382.091 115.818 382.247 116.236C382.403 116.651 382.481 117.136 382.481 117.693V118.192H376.954V117.067H380.772C380.772 116.805 380.716 116.574 380.602 116.372C380.488 116.17 380.331 116.013 380.129 115.899C379.93 115.783 379.699 115.724 379.434 115.724C379.159 115.724 378.914 115.788 378.701 115.916C378.491 116.041 378.326 116.21 378.207 116.423C378.088 116.634 378.027 116.868 378.024 117.126V118.196C378.024 118.52 378.083 118.8 378.203 119.036C378.325 119.271 378.497 119.453 378.718 119.581C378.94 119.709 379.203 119.773 379.507 119.773C379.708 119.773 379.893 119.744 380.061 119.688C380.228 119.631 380.372 119.545 380.491 119.432C380.61 119.318 380.701 119.179 380.764 119.014L382.443 119.125C382.358 119.528 382.183 119.881 381.919 120.182C381.657 120.48 381.319 120.713 380.904 120.881C380.493 121.045 380.017 121.128 379.477 121.128Z" fill="#FA8F00"/>
<path d="M208.719 121V112.273H214.498V113.794H210.565V115.874H214.114V117.395H210.565V121H208.719ZM217.489 121.124C217.072 121.124 216.7 121.051 216.373 120.906C216.046 120.759 215.788 120.541 215.597 120.254C215.41 119.964 215.316 119.604 215.316 119.172C215.316 118.808 215.383 118.503 215.516 118.256C215.65 118.009 215.832 117.81 216.062 117.659C216.292 117.509 216.553 117.395 216.846 117.318C217.141 117.241 217.451 117.188 217.775 117.156C218.156 117.116 218.462 117.08 218.695 117.045C218.928 117.009 219.097 116.955 219.202 116.884C219.308 116.812 219.36 116.707 219.36 116.568V116.543C219.36 116.273 219.275 116.064 219.104 115.916C218.937 115.768 218.698 115.695 218.388 115.695C218.062 115.695 217.802 115.767 217.609 115.912C217.415 116.054 217.288 116.233 217.225 116.449L215.546 116.312C215.631 115.915 215.799 115.571 216.049 115.281C216.299 114.989 216.621 114.764 217.016 114.608C217.414 114.449 217.874 114.369 218.397 114.369C218.761 114.369 219.109 114.412 219.441 114.497C219.776 114.582 220.073 114.714 220.332 114.893C220.593 115.072 220.799 115.303 220.95 115.584C221.1 115.862 221.175 116.196 221.175 116.585V121H219.454V120.092H219.403C219.298 120.297 219.157 120.477 218.981 120.634C218.805 120.787 218.593 120.908 218.346 120.996C218.099 121.081 217.813 121.124 217.489 121.124ZM218.009 119.871C218.276 119.871 218.512 119.818 218.717 119.713C218.921 119.605 219.082 119.46 219.198 119.278C219.315 119.097 219.373 118.891 219.373 118.661V117.966C219.316 118.003 219.238 118.037 219.138 118.068C219.042 118.097 218.933 118.124 218.81 118.149C218.688 118.172 218.566 118.193 218.444 118.213C218.322 118.23 218.211 118.246 218.112 118.26C217.898 118.291 217.712 118.341 217.553 118.409C217.394 118.477 217.271 118.57 217.183 118.686C217.094 118.8 217.05 118.942 217.05 119.112C217.05 119.359 217.14 119.548 217.319 119.679C217.501 119.807 217.731 119.871 218.009 119.871ZM224.399 112.273V121H222.584V112.273H224.399ZM231.299 116.321L229.637 116.423C229.609 116.281 229.548 116.153 229.454 116.04C229.36 115.923 229.237 115.831 229.083 115.763C228.933 115.692 228.752 115.656 228.542 115.656C228.261 115.656 228.024 115.716 227.831 115.835C227.637 115.952 227.541 116.108 227.541 116.304C227.541 116.46 227.603 116.592 227.728 116.7C227.853 116.808 228.068 116.895 228.372 116.96L229.556 117.199C230.193 117.33 230.667 117.54 230.98 117.83C231.292 118.119 231.449 118.5 231.449 118.972C231.449 119.401 231.322 119.777 231.069 120.101C230.819 120.425 230.475 120.678 230.038 120.859C229.603 121.038 229.102 121.128 228.534 121.128C227.667 121.128 226.977 120.947 226.463 120.587C225.951 120.223 225.652 119.729 225.564 119.104L227.349 119.01C227.403 119.274 227.534 119.476 227.741 119.615C227.949 119.751 228.214 119.82 228.538 119.82C228.856 119.82 229.112 119.759 229.305 119.636C229.501 119.511 229.6 119.351 229.603 119.155C229.6 118.99 229.531 118.855 229.395 118.75C229.258 118.642 229.048 118.56 228.764 118.503L227.63 118.277C226.991 118.149 226.515 117.928 226.203 117.612C225.893 117.297 225.738 116.895 225.738 116.406C225.738 115.986 225.852 115.624 226.079 115.32C226.309 115.016 226.632 114.781 227.047 114.616C227.464 114.452 227.953 114.369 228.512 114.369C229.339 114.369 229.99 114.544 230.464 114.893C230.941 115.243 231.22 115.719 231.299 116.321ZM235.575 121.128C234.901 121.128 234.322 120.991 233.836 120.719C233.353 120.443 232.981 120.054 232.719 119.551C232.458 119.045 232.327 118.447 232.327 117.757C232.327 117.084 232.458 116.493 232.719 115.984C232.981 115.476 233.349 115.08 233.823 114.795C234.3 114.511 234.86 114.369 235.502 114.369C235.934 114.369 236.336 114.439 236.708 114.578C237.083 114.714 237.41 114.92 237.688 115.196C237.969 115.472 238.188 115.818 238.344 116.236C238.501 116.651 238.579 117.136 238.579 117.693V118.192H233.052V117.067H236.87C236.87 116.805 236.813 116.574 236.7 116.372C236.586 116.17 236.428 116.013 236.227 115.899C236.028 115.783 235.796 115.724 235.532 115.724C235.256 115.724 235.012 115.788 234.799 115.916C234.589 116.041 234.424 116.21 234.305 116.423C234.185 116.634 234.124 116.868 234.121 117.126V118.196C234.121 118.52 234.181 118.8 234.3 119.036C234.423 119.271 234.594 119.453 234.816 119.581C235.038 119.709 235.3 119.773 235.604 119.773C235.806 119.773 235.991 119.744 236.158 119.688C236.326 119.631 236.469 119.545 236.589 119.432C236.708 119.318 236.799 119.179 236.862 119.014L238.54 119.125C238.455 119.528 238.281 119.881 238.016 120.182C237.755 120.48 237.417 120.713 237.002 120.881C236.59 121.045 236.114 121.128 235.575 121.128Z" fill="#FA8F00"/>
</svg>
